<?xml version="1.0" encoding="UTF-8" standalone="no"?>
<!DOCTYPE svg PUBLIC "-//W3C//DTD SVG 1.1//EN" "http://www.w3.org/Graphics/SVG/1.1/DTD/svg11.dtd">
<svg width="100%" height="100%" viewBox="0 0 303 100" version="1.1" xmlns="http://www.w3.org/2000/svg" xmlns:xlink="http://www.w3.org/1999/xlink" xml:space="preserve" xmlns:serif="http://www.serif.com/" style="fill-rule:evenodd;clip-rule:evenodd;stroke-linejoin:round;stroke-miterlimit:2;">
    <g>
        <g transform="matrix(1.10451,0,0,1.10451,-3.7908,-3.01662)">
            <rect x="27" y="17" width="49" height="61" style="fill:rgb(253,253,253);"/>
        </g>
        <g transform="matrix(1.10451,0,0,1.10451,-2.68629,-3.01662)">
            <path d="M110,31.912L110,7.5L140.644,7.5L140.865,7.997L155.552,19.933L170.243,7.501L195.819,7.528L195.803,88.5L170.46,88.5L170.46,42.727L155.552,54.103L140.644,42.727L140.644,88.5L110,88.5L110,63.088C115.411,59.799 119,54.044 119,47.5C119,40.956 115.411,35.201 110,31.912Z" style="fill:rgb(236,90,88);"/>
        </g>
        <g transform="matrix(1,0,0,1,-1,0)">
            <ellipse cx="107" cy="48" rx="24" ry="23" style="fill:rgb(253,253,253);"/>
            <g transform="matrix(1.10451,0,0,1.10451,-8.53427,-5.22565)">
                <path d="M103.5,9.5C125.853,9.5 144,27.647 144,50C144,72.353 125.853,90.5 103.5,90.5C81.147,90.5 63,72.353 63,50C63,27.647 81.147,9.5 103.5,9.5ZM103.5,35C111.779,35 118.5,41.721 118.5,50C118.5,58.279 111.779,65 103.5,65C95.221,65 88.5,58.279 88.5,50C88.5,41.721 95.221,35 103.5,35Z" style="fill:rgb(251,208,53);"/>
            </g>
        </g>
        <g transform="matrix(1.10451,0,0,1.10451,-3.7908,-3.01662)">
            <path d="M73.364,79.962C66.497,85.312 57.868,88.5 48.5,88.5C26.147,88.5 8,70.353 8,48C8,25.647 26.147,7.5 48.5,7.5C57.868,7.5 66.497,10.688 73.364,16.038L54.947,34.455C52.994,33.522 50.807,33 48.5,33C40.221,33 33.5,39.721 33.5,48C33.5,56.279 40.221,63 48.5,63C50.807,63 52.994,62.478 54.947,61.545L73.364,79.962Z" style="fill:rgb(20,69,99);"/>
        </g>
        <g transform="matrix(1.09274,0,0,1.10451,-2.94971,-3.01662)">
            <rect x="200" y="7.5" width="17" height="81" style="fill:rgb(253,253,253);"/>
        </g>
        <g transform="matrix(1.10451,0,0,1.10451,-16.7314,-3.01662)">
            <path d="M249,19.319L229.909,19.319L229.909,7.5L284.909,7.5L284.909,19.319L265.819,19.319L265.819,88.5L249,88.5L249,19.319Z" style="fill:rgb(253,253,253);"/>
        </g>
    </g>
</svg>
